<mxfile host="app.diagrams.net" agent="Mozilla/5.0 (Windows NT 10.0; Win64; x64; rv:127.0) Gecko/20100101 Firefox/127.0" version="24.7.6">
  <diagram name="Page-1" id="rJA6HgP62_8TyK0lWPbF">
    <mxGraphModel dx="1434" dy="777" grid="1" gridSize="10" guides="1" tooltips="1" connect="1" arrows="1" fold="1" page="1" pageScale="1" pageWidth="827" pageHeight="1169" math="1" shadow="0">
      <root>
        <mxCell id="0" />
        <mxCell id="1" parent="0" />
        <mxCell id="2U1mGM0lgGCfURZB-hvH-1" value="" style="endArrow=none;html=1;rounded=0;exitX=0.75;exitY=1;exitDx=0;exitDy=0;" parent="1" edge="1" source="2U1mGM0lgGCfURZB-hvH-20">
          <mxGeometry width="50" height="50" relative="1" as="geometry">
            <mxPoint x="180" y="400" as="sourcePoint" />
            <mxPoint x="470" y="400" as="targetPoint" />
          </mxGeometry>
        </mxCell>
        <mxCell id="2U1mGM0lgGCfURZB-hvH-2" value="" style="endArrow=none;html=1;rounded=0;entryX=0.25;entryY=0;entryDx=0;entryDy=0;" parent="1" edge="1" target="2U1mGM0lgGCfURZB-hvH-17">
          <mxGeometry width="50" height="50" relative="1" as="geometry">
            <mxPoint x="100" y="560" as="sourcePoint" />
            <mxPoint x="350" y="560" as="targetPoint" />
          </mxGeometry>
        </mxCell>
        <mxCell id="2U1mGM0lgGCfURZB-hvH-3" value="" style="endArrow=none;html=1;rounded=0;" parent="1" edge="1">
          <mxGeometry width="50" height="50" relative="1" as="geometry">
            <mxPoint x="100" y="400" as="sourcePoint" />
            <mxPoint x="100" y="570" as="targetPoint" />
          </mxGeometry>
        </mxCell>
        <mxCell id="2U1mGM0lgGCfURZB-hvH-4" value="" style="endArrow=none;html=1;rounded=0;" parent="1" edge="1">
          <mxGeometry width="50" height="50" relative="1" as="geometry">
            <mxPoint x="470" y="400" as="sourcePoint" />
            <mxPoint x="470" y="560" as="targetPoint" />
          </mxGeometry>
        </mxCell>
        <mxCell id="2U1mGM0lgGCfURZB-hvH-5" value="" style="endArrow=none;html=1;rounded=0;" parent="1" edge="1">
          <mxGeometry width="50" height="50" relative="1" as="geometry">
            <mxPoint x="290" y="400" as="sourcePoint" />
            <mxPoint x="290" y="570" as="targetPoint" />
          </mxGeometry>
        </mxCell>
        <mxCell id="2U1mGM0lgGCfURZB-hvH-7" value="" style="endArrow=none;html=1;rounded=0;" parent="1" edge="1">
          <mxGeometry width="50" height="50" relative="1" as="geometry">
            <mxPoint x="100" y="490" as="sourcePoint" />
            <mxPoint x="470" y="490" as="targetPoint" />
          </mxGeometry>
        </mxCell>
        <mxCell id="2U1mGM0lgGCfURZB-hvH-9" value="$$m_\times(a_2^1, a_2^2)=H^{1,~1}_{m_1(a_1^1), ~m_2(a_1^2)}$$" style="text;html=1;align=center;verticalAlign=middle;whiteSpace=wrap;rounded=0;" parent="1" vertex="1">
          <mxGeometry x="340" y="430" width="80" height="30" as="geometry" />
        </mxCell>
        <mxCell id="2U1mGM0lgGCfURZB-hvH-10" value="$$m_\times(a_1^1, a_2^2)=H^{m_1(a_1^1),~ 1}_{0,~m_2(a_1^2)}$$" style="text;html=1;align=center;verticalAlign=middle;whiteSpace=wrap;rounded=0;" parent="1" vertex="1">
          <mxGeometry x="160" y="430" width="80" height="30" as="geometry" />
        </mxCell>
        <mxCell id="2U1mGM0lgGCfURZB-hvH-11" value="$$m_\times(a_2^1, a_1^2)=H^{1,~m_2(a_1^2)}_{m_1(a_1^1),~0}$$" style="text;html=1;align=center;verticalAlign=middle;whiteSpace=wrap;rounded=0;" parent="1" vertex="1">
          <mxGeometry x="340" y="510" width="80" height="30" as="geometry" />
        </mxCell>
        <mxCell id="2U1mGM0lgGCfURZB-hvH-12" value="$$m_\times(a_1^1, a_1^2)=H^{m_1(a_1^1),~m_2(a_1^2)}_{0,~0}$$" style="text;html=1;align=center;verticalAlign=middle;whiteSpace=wrap;rounded=0;" parent="1" vertex="1">
          <mxGeometry x="160" y="510" width="80" height="30" as="geometry" />
        </mxCell>
        <mxCell id="2U1mGM0lgGCfURZB-hvH-17" value="&lt;div&gt;$$1$$&lt;/div&gt;" style="text;html=1;align=center;verticalAlign=middle;whiteSpace=wrap;rounded=0;" parent="1" vertex="1">
          <mxGeometry x="460" y="560" width="40" height="20" as="geometry" />
        </mxCell>
        <mxCell id="2U1mGM0lgGCfURZB-hvH-19" value="&lt;div&gt;$$0$$&lt;/div&gt;" style="text;html=1;align=center;verticalAlign=middle;whiteSpace=wrap;rounded=0;" parent="1" vertex="1">
          <mxGeometry x="70" y="560" width="30" height="20" as="geometry" />
        </mxCell>
        <mxCell id="2U1mGM0lgGCfURZB-hvH-20" value="&lt;div&gt;$$1$$&lt;/div&gt;" style="text;html=1;align=center;verticalAlign=middle;whiteSpace=wrap;rounded=0;" parent="1" vertex="1">
          <mxGeometry x="70" y="380" width="40" height="20" as="geometry" />
        </mxCell>
        <mxCell id="2U1mGM0lgGCfURZB-hvH-21" value="" style="endArrow=classic;startArrow=classic;html=1;rounded=0;" parent="1" edge="1">
          <mxGeometry width="50" height="50" relative="1" as="geometry">
            <mxPoint x="110" y="570" as="sourcePoint" />
            <mxPoint x="280" y="570" as="targetPoint" />
          </mxGeometry>
        </mxCell>
        <mxCell id="2U1mGM0lgGCfURZB-hvH-22" value="&lt;div&gt;$$m_1(a_1^1)$$&lt;/div&gt;" style="text;html=1;align=center;verticalAlign=middle;whiteSpace=wrap;rounded=0;" parent="1" vertex="1">
          <mxGeometry x="185" y="575" width="30" height="20" as="geometry" />
        </mxCell>
        <mxCell id="2U1mGM0lgGCfURZB-hvH-23" value="" style="endArrow=classic;startArrow=classic;html=1;rounded=0;" parent="1" edge="1">
          <mxGeometry width="50" height="50" relative="1" as="geometry">
            <mxPoint x="300" y="570" as="sourcePoint" />
            <mxPoint x="460" y="570" as="targetPoint" />
          </mxGeometry>
        </mxCell>
        <mxCell id="2U1mGM0lgGCfURZB-hvH-24" value="&lt;div&gt;$$m_1(a_2^1)$$&lt;/div&gt;" style="text;html=1;align=center;verticalAlign=middle;whiteSpace=wrap;rounded=0;" parent="1" vertex="1">
          <mxGeometry x="365" y="575" width="30" height="20" as="geometry" />
        </mxCell>
        <mxCell id="2U1mGM0lgGCfURZB-hvH-25" value="" style="endArrow=classic;startArrow=classic;html=1;rounded=0;" parent="1" edge="1">
          <mxGeometry width="50" height="50" relative="1" as="geometry">
            <mxPoint x="90" y="410" as="sourcePoint" />
            <mxPoint x="90" y="480" as="targetPoint" />
          </mxGeometry>
        </mxCell>
        <mxCell id="2U1mGM0lgGCfURZB-hvH-26" value="&lt;div&gt;$$m_2(a_2^2)$$&lt;/div&gt;" style="text;html=1;align=center;verticalAlign=middle;whiteSpace=wrap;rounded=0;" parent="1" vertex="1">
          <mxGeometry x="40" y="430" width="30" height="20" as="geometry" />
        </mxCell>
        <mxCell id="2U1mGM0lgGCfURZB-hvH-27" value="" style="endArrow=classic;startArrow=classic;html=1;rounded=0;" parent="1" edge="1">
          <mxGeometry width="50" height="50" relative="1" as="geometry">
            <mxPoint x="90" y="500" as="sourcePoint" />
            <mxPoint x="89.86000000000001" y="550" as="targetPoint" />
          </mxGeometry>
        </mxCell>
        <mxCell id="2U1mGM0lgGCfURZB-hvH-28" value="&lt;div&gt;$$m_2(a_1^2)$$&lt;/div&gt;" style="text;html=1;align=center;verticalAlign=middle;whiteSpace=wrap;rounded=0;" parent="1" vertex="1">
          <mxGeometry x="40" y="520" width="30" height="20" as="geometry" />
        </mxCell>
        <mxCell id="2U1mGM0lgGCfURZB-hvH-51" value="$$a_1^1\preceq_1a_2^1$$" style="text;html=1;align=center;verticalAlign=middle;resizable=0;points=[];autosize=1;strokeColor=none;fillColor=none;" parent="1" vertex="1">
          <mxGeometry x="210" y="608" width="170" height="30" as="geometry" />
        </mxCell>
        <mxCell id="tTvkgt8f_YPqFDc55ux8-23" value="" style="endArrow=none;html=1;rounded=0;exitX=0.75;exitY=1;exitDx=0;exitDy=0;" edge="1" parent="1" source="tTvkgt8f_YPqFDc55ux8-35">
          <mxGeometry width="50" height="50" relative="1" as="geometry">
            <mxPoint x="180" y="680" as="sourcePoint" />
            <mxPoint x="470" y="680" as="targetPoint" />
          </mxGeometry>
        </mxCell>
        <mxCell id="tTvkgt8f_YPqFDc55ux8-24" value="" style="endArrow=none;html=1;rounded=0;entryX=0.25;entryY=0;entryDx=0;entryDy=0;" edge="1" parent="1" target="tTvkgt8f_YPqFDc55ux8-33">
          <mxGeometry width="50" height="50" relative="1" as="geometry">
            <mxPoint x="100" y="840" as="sourcePoint" />
            <mxPoint x="350" y="840" as="targetPoint" />
          </mxGeometry>
        </mxCell>
        <mxCell id="tTvkgt8f_YPqFDc55ux8-25" value="" style="endArrow=none;html=1;rounded=0;" edge="1" parent="1">
          <mxGeometry width="50" height="50" relative="1" as="geometry">
            <mxPoint x="100" y="680" as="sourcePoint" />
            <mxPoint x="100" y="850" as="targetPoint" />
          </mxGeometry>
        </mxCell>
        <mxCell id="tTvkgt8f_YPqFDc55ux8-26" value="" style="endArrow=none;html=1;rounded=0;" edge="1" parent="1">
          <mxGeometry width="50" height="50" relative="1" as="geometry">
            <mxPoint x="470" y="680" as="sourcePoint" />
            <mxPoint x="470" y="840" as="targetPoint" />
          </mxGeometry>
        </mxCell>
        <mxCell id="tTvkgt8f_YPqFDc55ux8-27" value="" style="endArrow=none;html=1;rounded=0;" edge="1" parent="1">
          <mxGeometry width="50" height="50" relative="1" as="geometry">
            <mxPoint x="290" y="680" as="sourcePoint" />
            <mxPoint x="290" y="850" as="targetPoint" />
          </mxGeometry>
        </mxCell>
        <mxCell id="tTvkgt8f_YPqFDc55ux8-28" value="" style="endArrow=none;html=1;rounded=0;" edge="1" parent="1">
          <mxGeometry width="50" height="50" relative="1" as="geometry">
            <mxPoint x="100" y="770" as="sourcePoint" />
            <mxPoint x="470" y="770" as="targetPoint" />
          </mxGeometry>
        </mxCell>
        <mxCell id="tTvkgt8f_YPqFDc55ux8-29" value="$$m_\times(a_1^1, a_2^2)=H^{1,~1}_{m_1(a_2^1), ~m_2(a_1^2)}$$" style="text;html=1;align=center;verticalAlign=middle;whiteSpace=wrap;rounded=0;" vertex="1" parent="1">
          <mxGeometry x="340" y="710" width="80" height="30" as="geometry" />
        </mxCell>
        <mxCell id="tTvkgt8f_YPqFDc55ux8-30" value="$$m_\times(a_2^1, a_2^2)=H^{m_1(a_2^1),~ 1}_{0,~m_2(a_1^2)}$$" style="text;html=1;align=center;verticalAlign=middle;whiteSpace=wrap;rounded=0;" vertex="1" parent="1">
          <mxGeometry x="160" y="710" width="80" height="30" as="geometry" />
        </mxCell>
        <mxCell id="tTvkgt8f_YPqFDc55ux8-31" value="$$m_\times(a_1^1, a_1^2)=H^{1,~m_2(a_1^2)}_{m_1(a_1^1),~0}$$" style="text;html=1;align=center;verticalAlign=middle;whiteSpace=wrap;rounded=0;" vertex="1" parent="1">
          <mxGeometry x="340" y="790" width="80" height="30" as="geometry" />
        </mxCell>
        <mxCell id="tTvkgt8f_YPqFDc55ux8-32" value="$$m_\times(a_2^1, a_1^2)=H^{m_1(a_2^1),~m_2(a_1^2)}_{0,~0}$$" style="text;html=1;align=center;verticalAlign=middle;whiteSpace=wrap;rounded=0;" vertex="1" parent="1">
          <mxGeometry x="160" y="790" width="80" height="30" as="geometry" />
        </mxCell>
        <mxCell id="tTvkgt8f_YPqFDc55ux8-33" value="&lt;div&gt;$$1$$&lt;/div&gt;" style="text;html=1;align=center;verticalAlign=middle;whiteSpace=wrap;rounded=0;" vertex="1" parent="1">
          <mxGeometry x="460" y="840" width="40" height="20" as="geometry" />
        </mxCell>
        <mxCell id="tTvkgt8f_YPqFDc55ux8-34" value="&lt;div&gt;$$0$$&lt;/div&gt;" style="text;html=1;align=center;verticalAlign=middle;whiteSpace=wrap;rounded=0;" vertex="1" parent="1">
          <mxGeometry x="70" y="840" width="30" height="20" as="geometry" />
        </mxCell>
        <mxCell id="tTvkgt8f_YPqFDc55ux8-35" value="&lt;div&gt;$$1$$&lt;/div&gt;" style="text;html=1;align=center;verticalAlign=middle;whiteSpace=wrap;rounded=0;" vertex="1" parent="1">
          <mxGeometry x="70" y="660" width="40" height="20" as="geometry" />
        </mxCell>
        <mxCell id="tTvkgt8f_YPqFDc55ux8-36" value="" style="endArrow=classic;startArrow=classic;html=1;rounded=0;" edge="1" parent="1">
          <mxGeometry width="50" height="50" relative="1" as="geometry">
            <mxPoint x="110" y="850" as="sourcePoint" />
            <mxPoint x="280" y="850" as="targetPoint" />
          </mxGeometry>
        </mxCell>
        <mxCell id="tTvkgt8f_YPqFDc55ux8-38" value="" style="endArrow=classic;startArrow=classic;html=1;rounded=0;" edge="1" parent="1">
          <mxGeometry width="50" height="50" relative="1" as="geometry">
            <mxPoint x="300" y="850" as="sourcePoint" />
            <mxPoint x="460" y="850" as="targetPoint" />
          </mxGeometry>
        </mxCell>
        <mxCell id="tTvkgt8f_YPqFDc55ux8-39" value="&lt;div&gt;$$m_1(a_1^1)$$&lt;/div&gt;" style="text;html=1;align=center;verticalAlign=middle;whiteSpace=wrap;rounded=0;" vertex="1" parent="1">
          <mxGeometry x="365" y="855" width="30" height="20" as="geometry" />
        </mxCell>
        <mxCell id="tTvkgt8f_YPqFDc55ux8-40" value="" style="endArrow=classic;startArrow=classic;html=1;rounded=0;" edge="1" parent="1">
          <mxGeometry width="50" height="50" relative="1" as="geometry">
            <mxPoint x="90" y="690" as="sourcePoint" />
            <mxPoint x="90" y="760" as="targetPoint" />
          </mxGeometry>
        </mxCell>
        <mxCell id="tTvkgt8f_YPqFDc55ux8-41" value="&lt;div&gt;$$m_2(a_2^2)$$&lt;/div&gt;" style="text;html=1;align=center;verticalAlign=middle;whiteSpace=wrap;rounded=0;" vertex="1" parent="1">
          <mxGeometry x="40" y="710" width="30" height="20" as="geometry" />
        </mxCell>
        <mxCell id="tTvkgt8f_YPqFDc55ux8-42" value="" style="endArrow=classic;startArrow=classic;html=1;rounded=0;" edge="1" parent="1">
          <mxGeometry width="50" height="50" relative="1" as="geometry">
            <mxPoint x="90" y="780" as="sourcePoint" />
            <mxPoint x="89.86000000000001" y="830" as="targetPoint" />
          </mxGeometry>
        </mxCell>
        <mxCell id="tTvkgt8f_YPqFDc55ux8-43" value="&lt;div&gt;$$m_2(a_1^2)$$&lt;/div&gt;" style="text;html=1;align=center;verticalAlign=middle;whiteSpace=wrap;rounded=0;" vertex="1" parent="1">
          <mxGeometry x="40" y="800" width="30" height="20" as="geometry" />
        </mxCell>
        <mxCell id="tTvkgt8f_YPqFDc55ux8-44" value="$$a_2^1\preceq_1a_1^1$$" style="text;html=1;align=center;verticalAlign=middle;resizable=0;points=[];autosize=1;strokeColor=none;fillColor=none;" vertex="1" parent="1">
          <mxGeometry x="210" y="888" width="170" height="30" as="geometry" />
        </mxCell>
        <mxCell id="tTvkgt8f_YPqFDc55ux8-45" value="&lt;div&gt;$$m_1(a_2^1)$$&lt;/div&gt;" style="text;html=1;align=center;verticalAlign=middle;whiteSpace=wrap;rounded=0;" vertex="1" parent="1">
          <mxGeometry x="186" y="860" width="30" height="20" as="geometry" />
        </mxCell>
      </root>
    </mxGraphModel>
  </diagram>
</mxfile>
